<svg width="680" height="680" viewBox="0 0 680 680" fill="none" xmlns="http://www.w3.org/2000/svg">
<path d="M649.842 197.472V197.506C653.208 213.384 652.358 230.282 651.1 246.466C649.91 261.596 642.906 276.114 638.384 290.598C629.544 319.022 616.794 346.732 612.612 376.312C610.572 390.694 611.252 405.008 614.686 419.152C618.562 435.064 624.342 450.568 626.008 466.956C626.212 468.826 626.314 470.662 626.348 472.532C629.68 457.096 627.878 440.028 625.634 424.286C623.526 409.36 621.282 394.536 622.03 379.44C622.812 364.174 625.974 349.18 629.884 334.424C637.772 304.674 648.788 275.638 652.256 244.902C654.092 228.888 653.174 212.874 649.842 197.472ZM59.16 149.974C54.774 154.19 50.762 158.78 47.192 163.71C39.712 174.08 34.51 186.15 32.708 198.832C30.498 214.37 33.218 229.976 37.876 244.834C42.636 260.066 49.164 274.686 54.298 289.782C59.67 305.694 63.138 322.218 64.77 338.946C66.402 355.708 66.334 372.64 64.906 389.436C63.546 405.586 60.724 421.872 62.662 438.09C64.294 451.758 69.496 464.338 78.812 474.572C82.178 478.244 85.918 481.508 89.964 484.364C74.358 462.434 73.542 433.602 78.438 408C84.558 375.904 99.45 345.134 99.382 312.052C99.314 277.27 83.98 244.732 72.59 212.364C65.484 192.236 59.738 171.156 59.16 149.974ZM629.374 148.172C635.732 160.446 642.022 170.51 646.68 185.402C642.668 172.244 636.82 159.698 629.374 148.172ZM507.722 82.246C502.384 82.246 497.08 82.552 491.776 83.164C461.72 86.666 434.044 99.246 406.572 111.112C392.734 117.096 378.76 122.91 364.31 127.33C355.3 130.084 346.154 132.124 336.906 133.45C356.966 143.208 378.046 150.96 400.35 153.918C406.062 154.666 411.808 155.04 417.52 155.04C428.468 155.04 439.348 153.714 450.024 151.164C466.922 147.152 482.97 140.692 498.61 133.45C518.976 123.998 544.68 107.712 568.99 107.712C577.898 107.712 586.636 109.922 594.864 115.464C603.874 121.55 614.006 128.826 621.588 137.156C609.416 121.652 594.048 108.562 576.062 99.178C555.05 88.264 531.386 82.246 507.722 82.246Z" fill="#FFD2D6"/>
<path d="M626.382 472.498C623.934 483.82 618.732 494.258 608.94 502.622C587.656 520.846 556.58 523.022 529.822 524.042C525.3 524.212 520.778 524.314 516.29 524.314C458.592 524.314 401.064 510.408 349.69 484.16C349.044 485.214 347.99 485.996 346.562 485.996C346.256 485.996 345.95 485.962 345.644 485.894C329.154 482.086 312.358 480.012 295.426 479.74C294.134 479.706 292.808 479.706 291.516 479.706C275.57 479.706 259.692 481.304 244.052 484.398C227.46 487.696 211.174 492.354 194.684 496.026C179.826 499.358 164.662 501.772 149.566 501.772C136.034 501.772 122.57 499.8 109.548 494.734C102.646 492.048 95.982 488.614 89.93 484.33C91.834 487.016 93.942 489.566 96.288 492.014C111.044 507.382 131.24 512.108 151.844 512.108C162.554 512.108 173.4 510.816 183.634 509.116C201.45 506.124 219.13 502.214 236.844 498.678C255.51 494.938 274.176 491.232 292.842 487.492C292.91 487.492 292.978 487.458 293.046 487.458C300.016 486.064 307.088 485.384 314.16 485.384C322.422 485.384 330.684 486.336 338.742 488.24C357.34 492.626 375.598 498.508 393.584 504.56C424.184 514.794 454.614 525.98 486.404 532.304C502.112 535.432 518.704 537.642 535.194 537.642C549.984 537.642 564.672 535.874 578.544 531.454C591.838 527.204 604.928 520.336 613.802 509.66C622.71 498.882 626.62 485.928 626.382 472.498ZM646.68 185.402C647.904 189.38 648.958 193.392 649.842 197.472C648.89 193.052 647.836 189.074 646.68 185.402ZM621.554 137.156C624.342 140.692 626.96 144.364 629.408 148.138C627.402 144.296 624.682 140.624 621.554 137.156ZM151.742 54.774C142.392 54.774 133.076 55.794 123.896 58.038C109.072 61.642 95.064 68.816 84.422 79.458C74.052 89.862 67.014 103.02 63.104 116.858C60.01 127.84 58.888 138.924 59.16 149.974C73.474 136.17 91.698 126.344 110.806 121.312C125.154 117.538 139.774 116.042 154.496 116.042C173.536 116.042 192.644 118.524 211.31 121.618C244.664 127.16 277.95 135.184 311.916 135.184C313.208 135.184 314.5 135.184 315.826 135.15C322.898 135.014 329.936 134.47 336.872 133.484C326.4 128.384 316.2 122.774 306.272 117.028C277.1 100.164 248.846 81.702 217.328 68.952C196.69 60.588 174.216 54.774 151.742 54.774Z" fill="#FFD2D6"/>
<path d="M568.956 107.712C544.646 107.712 518.942 124.032 498.576 133.45C482.97 140.692 466.888 147.152 449.99 151.164C439.314 153.68 428.4 155.04 417.486 155.04C411.774 155.04 406.028 154.666 400.316 153.918C378.046 150.994 356.932 143.208 336.872 133.45C329.936 134.436 322.898 135.014 315.826 135.116C314.534 135.15 313.208 135.15 311.916 135.15C277.95 135.15 244.664 127.16 211.31 121.584C192.644 118.49 173.502 116.008 154.496 116.008C139.808 116.008 125.154 117.47 110.806 121.278C91.664 126.31 73.474 136.17 59.16 149.94C59.704 171.122 65.484 192.236 72.522 212.33C83.878 244.698 99.246 277.236 99.314 312.018C99.382 345.1 84.456 375.836 78.37 407.966C73.508 433.568 74.29 462.366 89.896 484.33C95.948 488.614 102.612 492.048 109.514 494.734C122.536 499.8 136 501.772 149.532 501.772C164.628 501.772 179.792 499.324 194.65 496.026C211.14 492.354 227.426 487.696 244.018 484.398C259.658 481.27 275.536 479.706 291.482 479.706C292.774 479.706 294.1 479.706 295.392 479.74C312.324 480.012 329.12 482.086 345.61 485.894C345.95 485.962 346.256 485.996 346.528 485.996C347.922 485.996 349.01 485.214 349.656 484.16C401.03 510.408 458.558 524.314 516.256 524.314C520.778 524.314 525.3 524.212 529.788 524.042C556.546 523.022 587.622 520.846 608.906 502.622C618.698 494.258 623.9 483.82 626.348 472.498C626.314 470.662 626.212 468.792 626.008 466.922C624.342 450.568 618.562 435.064 614.686 419.118C611.252 404.974 610.572 390.66 612.612 376.278C616.794 346.698 629.544 318.988 638.384 290.564C642.872 276.08 649.91 261.528 651.1 246.432C652.358 230.248 653.208 213.384 649.842 197.472V197.438C648.958 193.358 647.904 189.346 646.68 185.368C642.022 170.476 635.732 160.412 629.374 148.138C626.926 144.364 624.308 140.692 621.52 137.156C613.938 128.792 603.806 121.55 594.796 115.464C586.636 109.888 577.898 107.712 568.956 107.712Z" fill="#FFC0C9"/>
<path d="M584.868 579.7C580.89 573.308 573.784 570.996 566.644 570.384C558.382 569.704 549.916 570.248 541.62 570.282C533.222 570.282 524.824 570.282 516.392 570.282C500.276 570.248 484.16 570.112 468.044 569.976C435.642 569.704 403.274 569.364 370.872 569.398C362.372 569.398 353.906 569.432 345.406 569.466C309.808 569.024 274.21 568.582 238.612 568.106C203.014 567.664 167.416 567.222 131.818 566.746C124.78 566.644 117.164 565.998 110.534 568.82C104.414 571.438 100.64 576.912 100.198 583.542C99.212 598.094 112.302 606.866 124.882 609.926C140.862 613.836 157.896 613.7 174.216 613.258C191.42 612.816 208.658 611.66 225.862 612.68C242.794 613.7 259.08 617.95 275.57 621.724C292.434 625.566 309.298 627.674 326.638 627.368C343.944 627.028 361.182 624.92 378.352 623.016C395.93 621.078 413.508 619.14 431.052 617.168C466.344 613.258 501.636 609.348 536.962 605.438C545.734 604.452 554.54 603.5 563.312 602.514C569.806 601.8 577.116 601.494 582.42 597.21C587.894 592.858 588.438 585.446 584.868 579.7Z" fill="#2A3054"/>
<path d="M266.934 251.566V274.142C266.934 279.65 270.3 284.376 275.094 286.382C276.862 287.13 278.018 288.898 278.018 290.836V302.838C278.018 305.796 275.978 308.38 273.122 309.06C272.748 309.162 272.442 309.4 272.34 309.774C272.102 310.522 272.646 311.168 273.36 311.168H278.052H280.228H282.404H287.096C287.742 311.168 288.252 310.59 288.15 309.91C288.082 309.468 287.742 309.128 287.3 309.026C284.444 308.346 282.404 305.762 282.404 302.838V290.836C282.404 288.898 283.526 287.13 285.328 286.382C290.122 284.376 293.488 279.65 293.488 274.142V251.566H266.934Z" fill="#EFEFEF"/>
<path d="M268.906 258.502V273.802C268.906 280.058 273.972 285.124 280.228 285.124C286.484 285.124 291.55 280.058 291.55 273.802V258.502H268.906Z" fill="#ED4A62"/>
<path d="M390.796 261.052V279.922C390.796 284.546 393.618 288.49 397.63 290.156C399.126 290.768 400.078 292.264 400.078 293.862V303.892C400.078 306.374 398.378 308.516 395.964 309.094C395.658 309.162 395.386 309.4 395.318 309.672C395.148 310.284 395.59 310.828 396.168 310.828H400.078H401.88H403.682H407.592C408.136 310.828 408.578 310.352 408.476 309.774C408.408 309.4 408.136 309.128 407.762 309.06C405.382 308.482 403.682 306.34 403.682 303.892V293.862C403.682 292.264 404.634 290.768 406.13 290.156C410.142 288.49 412.964 284.546 412.964 279.922V261.052H390.796Z" fill="#EFEFEF"/>
<path d="M392.428 266.866V279.65C392.428 284.852 396.644 289.102 401.88 289.102C407.082 289.102 411.332 284.886 411.332 279.65V266.866H392.428Z" fill="#ED4A62"/>
<path d="M357.782 385.9H334.254V577.626H357.782V385.9Z" fill="url(#paint0_linear_8_199)"/>
<path d="M565.93 459.238H452.71C450.568 459.238 448.834 457.504 448.834 455.362V449.242C448.834 448.834 449.174 448.528 449.548 448.528H569.058C569.466 448.528 569.772 448.868 569.772 449.242V455.362C569.806 457.504 568.072 459.238 565.93 459.238Z" fill="#7F4746"/>
<path d="M565.692 577.592H556.784L533.392 459.238H542.3L565.692 577.592Z" fill="url(#paint1_linear_8_199)"/>
<path d="M452.948 577.592H461.856L485.248 459.238H476.34L452.948 577.592Z" fill="url(#paint2_linear_8_199)"/>
<path d="M592.62 314.194H565.216C556.954 314.194 549.848 320.042 548.25 328.168L530.536 419.526L448.834 433.942L505.172 438.77L563.856 436.798L582.488 394.57L592.62 314.194Z" fill="url(#paint3_linear_8_199)"/>
<path d="M584.29 321.198L564.978 429.93C564.57 432.276 562.53 433.976 560.15 433.976H448.834V442.714C448.834 447.372 452.608 451.18 457.3 451.18H561.204C571.132 451.18 579.666 444.04 581.4 434.248L600.95 324.156C601.868 318.988 597.89 314.228 592.62 314.228C588.506 314.194 585.004 317.152 584.29 321.198Z" fill="url(#paint4_linear_8_199)"/>
<path d="M490.28 391.986C490.28 391.986 425.442 394.944 412.76 407.864C401.37 419.424 404.396 520.88 400.078 530.808C395.76 540.736 388.178 560.932 385.594 563.312C383.01 565.692 369.716 567.46 369.716 571.438C369.716 575.416 369.92 578.17 380.834 577.966C391.748 577.762 400.656 578.748 400.656 575.79C400.656 572.832 408 550.392 419.084 542.47C426.326 537.302 424.32 527.034 419.662 524.824C411.74 521.05 433.33 448.868 434.146 438.974C434.962 429.08 453.764 413.576 454.58 413.202C455.396 412.794 490.28 391.986 490.28 391.986Z" fill="#FCDEE0"/>
<path d="M419.696 524.824C419.322 524.654 419.016 524.28 418.744 523.804C418.744 523.804 398.718 563.618 392.122 564.094C389.64 564.264 387.362 563.992 385.22 563.584C381.99 565.828 369.716 567.63 369.716 571.438C369.716 575.416 369.92 578.17 380.834 577.966C391.748 577.762 400.656 578.748 400.656 575.79C400.656 572.832 408 550.392 419.084 542.47C426.36 537.302 424.354 527.034 419.696 524.824Z" fill="url(#paint5_linear_8_199)"/>
<path d="M423.436 536.316L412.896 577.966H406.674L412.488 541.348L423.436 536.316Z" fill="url(#paint6_linear_8_199)"/>
<path d="M472.464 284.784C470.05 280.704 472.26 276.896 474.164 273.054C474.232 272.544 474.3 272.034 474.368 271.524C474.844 267.614 475.354 263.704 475.83 259.794C476 258.366 476.918 257.108 478.516 257.108C478.958 257.108 479.434 257.244 479.842 257.482C484.84 256.258 490.28 258.604 492.694 263.228C495.55 268.668 495.142 275.774 494.258 281.656C493.442 287.062 491.13 293.454 484.704 293.76C478.55 294.032 474.538 288.456 473.756 282.914C473.382 280.33 473.586 277.78 473.892 275.196C472.43 278.12 471.274 281.35 473.076 284.41C473.314 284.818 472.702 285.158 472.464 284.784Z" fill="#2E3666"/>
<path d="M472.328 246.84C472.736 247.044 472.362 247.656 471.954 247.452C467.976 245.446 467.704 241.332 468.622 237.456C468.826 235.552 469.472 233.716 470.492 232.05C472.94 228.038 477.122 225.556 481.066 223.278C483.072 222.122 484.874 225.216 482.868 226.372C477.768 229.33 468.792 235.144 473.11 242.216C474.3 244.188 471.206 245.99 470.016 244.018C469.506 243.202 469.166 242.318 468.928 241.434C469.03 243.678 469.948 245.65 472.328 246.84Z" fill="#2E3666"/>
<path d="M471.954 287.13C471.954 287.13 468.452 287.368 463.998 294.61C459.544 301.852 444.856 337.722 442.374 338.436C439.892 339.116 419.764 312.868 419.186 308.312C418.608 303.756 415.514 298.214 413.236 292.638C410.958 287.062 400.044 284.716 399.67 286.586C399.262 288.456 398.276 299.88 400.656 302.056C403.036 304.232 408.68 307.02 410.482 309.4C412.284 311.78 424.966 350.064 440.028 353.328C455.09 356.592 470.152 319.634 470.152 319.634L471.954 287.13Z" fill="url(#paint7_linear_8_199)"/>
<path d="M463.998 294.61C459.544 301.852 444.856 337.722 442.374 338.436C441.762 338.606 440.096 337.144 437.92 334.798C436.764 338.198 434.486 343.468 430.712 347.072C433.636 350.268 436.764 352.58 439.96 353.294C455.022 356.558 470.084 319.6 470.084 319.6L471.886 287.096C471.954 287.13 468.486 287.368 463.998 294.61Z" fill="url(#paint8_linear_8_199)"/>
<path d="M484.772 273.734C484.772 273.734 484.738 285.09 482.766 285.09C480.794 285.09 470.866 285.498 468.69 290.054C466.514 294.61 456.79 312.664 459.17 319.6C461.55 326.536 464.916 329.528 469.268 336.056C473.62 342.584 495.89 385.356 489.838 390.116C483.752 394.876 434.044 399.636 427.176 414.188C422.824 423.436 428.638 519.282 428.638 529.006C428.638 540.634 418.846 560.082 412.76 564.298C406.674 568.514 397.766 570.18 398.276 574.668C398.82 579.156 402.118 579.02 410.176 578.782C418.234 578.51 427.346 579.7 428.672 577.592C429.998 575.484 438.532 552.33 445.128 549.304C451.724 546.278 451.214 537.404 445.4 531.318C439.586 525.232 453.084 477.904 451.622 453.254C450.772 439.008 449.65 431.834 454.988 429.25C460.326 426.666 533.528 442.748 543.83 417.962C554.132 393.176 535.602 373.728 525.572 358.462C517.004 345.372 518.364 324.564 522.546 306.306C526.694 288.048 522.546 284.104 517.004 283.9C511.462 283.696 497.624 280.534 498.032 268.022L484.772 273.734Z" fill="url(#paint9_linear_8_199)"/>
<path d="M525.572 358.462C517.004 345.372 518.364 324.564 522.546 306.306C526.694 288.048 522.546 284.104 517.004 283.9C514.42 283.798 510.034 283.05 506.158 281.044C506.124 279.514 505.784 277.984 505.24 276.862C504.492 275.4 502.588 274.652 501.534 276.25C501.296 276.59 501.296 276.964 501.092 277.304C501.024 277.508 500.99 277.746 500.922 277.95C500.344 278.29 499.732 278.63 499.154 278.936C499.052 278.936 498.916 278.528 498.78 278.528C498.066 278.358 497.726 278.222 497.182 278.868C496.944 279.14 496.944 279.378 496.774 279.718C496.638 279.956 496.094 281.248 495.584 281.146C495.414 281.112 495.176 280.602 495.04 280.466C494.462 279.922 493.952 279.718 493.238 280.092C492.796 280.33 492.626 280.772 492.252 281.078C491.912 281.316 491.164 281.656 490.688 281.18C490.552 281.044 490.518 280.534 490.416 280.364C490.11 279.786 489.702 279.344 488.954 279.446C488.512 279.514 488.104 279.854 487.832 280.194C487.118 281.01 487.492 281.554 486.2 281.656C484.942 281.758 485.044 281.146 484.092 280.534C483.786 280.33 483.514 280.194 483.106 280.16C480.42 280.058 481.236 283.016 481.78 285.124C478.618 285.26 470.594 286.008 468.656 290.054C466.48 294.61 456.756 312.664 459.136 319.6C461.516 326.536 464.882 329.528 469.234 336.056C472.736 341.326 487.764 369.92 490.416 383.452C501.228 382.942 523.328 381.14 536.792 374.85C533.052 368.9 528.87 363.46 525.572 358.462Z" fill="url(#paint10_linear_8_199)"/>
<path d="M529.346 363.936C515.78 373.932 497.216 375.02 487.934 374.816C487.934 374.816 478.312 393.21 456.96 394.944C435.608 396.712 416.772 399.976 411.094 410.244C405.45 420.512 394.604 466.514 394.604 466.514C394.604 466.514 397.256 472.328 405.45 470.492C413.644 468.656 416.296 469.098 419.73 470.866C423.164 472.634 426.462 472.566 429.964 470.866C433.466 469.166 435.302 469.574 441.252 472.158C447.202 474.742 455.668 472.158 455.668 472.158C455.668 472.158 451.622 452.642 451.01 436.254C451.35 432.752 453.628 431.392 456.722 431.46C462.672 431.596 533.46 442.748 543.762 417.962C552.942 396.032 539.512 378.318 529.346 363.936Z" fill="url(#paint11_linear_8_199)"/>
<path d="M519.316 284.75C514.828 283.56 510.204 286.144 508.912 290.598C504.662 305.286 495.414 336.294 492.354 339.626C488.308 343.978 467.704 347.956 452.642 354.688C437.58 361.42 434.588 365.976 424.49 363.8C414.392 361.624 396.474 370.158 398.31 370.158C400.146 370.158 435.404 370.158 439.96 370.158C444.516 370.158 493.306 358.258 500.446 350.132C507.586 342.006 521.526 311.406 521.526 311.406C521.526 311.406 524.416 298.35 524.28 294.814C524.144 291.176 523.804 285.94 519.52 284.818C519.418 284.784 519.384 284.75 519.316 284.75Z" fill="url(#paint12_linear_8_199)"/>
<path d="M524.246 294.814C524.11 291.176 523.77 285.94 519.486 284.818C519.418 284.818 519.384 284.784 519.316 284.784C514.828 283.594 510.204 286.178 508.912 290.632C504.662 305.32 495.414 336.328 492.354 339.66C490.858 341.258 487.118 342.822 482.256 344.488C483.106 348.16 484.874 353.872 488.002 356.966C493.952 354.62 498.576 352.274 500.446 350.166C507.586 342.04 521.526 311.44 521.526 311.44C521.526 311.44 524.382 298.316 524.246 294.814Z" fill="#FF5B6D"/>
<path d="M449.922 542.878C450.466 539.172 448.766 534.82 445.4 531.284C445.162 531.012 444.958 530.672 444.754 530.298C444.754 530.298 431.392 565.148 423.572 565.522C418.71 565.76 414.358 565.284 411.774 564.91C405.756 568.684 397.766 570.384 398.276 574.634C398.82 579.122 402.118 578.986 410.176 578.748C418.234 578.476 427.346 579.666 428.672 577.558C429.624 576.028 434.384 563.38 439.484 555.424L438.022 578.85H443.19L449.956 542.912V542.878H449.922Z" fill="#383F7C"/>
<path d="M481.338 274.074C476.102 274.108 474.3 267.478 473.28 259.08L472.294 249.05C472.09 246.874 471.886 244.698 471.614 242.624C469.778 228.48 482.256 223.924 482.256 223.924C512.754 223.21 510.544 244.358 508.028 256.836C505.512 269.348 488.24 274.04 481.338 274.074Z" fill="url(#paint13_linear_8_199)"/>
<path d="M499.154 283.9C499.528 285.124 500.48 290.19 497.556 289.612C497.488 289.612 497.42 289.578 497.352 289.578C496.672 289.476 495.958 289.544 495.448 289.884C494.53 290.428 494.122 291.278 494.156 292.196C494.088 292.876 494.258 293.59 494.734 294.066C497.182 298.316 503.472 298.588 507.688 297.84C512.618 296.956 517.582 295.528 520.438 291.176C522.308 288.354 522.886 285.43 522.75 282.506C523.974 279.752 523.94 276.488 523.09 273.53C521.662 268.498 518.364 264.248 516.562 259.352C516.256 256.088 516.392 252.756 516.29 249.492C516.154 244.562 515.372 239.768 513.128 235.28C509.048 227.29 500.888 221.816 491.776 221.34C487.118 221.102 482.222 222.224 478.278 224.672C476.306 225.896 474.538 227.63 473.484 229.636C473.348 229.602 473.212 229.636 473.144 229.806C471.206 234.192 471.308 239.802 475.728 242.76C478.04 244.324 480.93 244.63 483.786 245.038C484.126 245.174 484.432 245.31 484.772 245.446C486.54 246.126 488.512 246.874 490.11 247.996C491.81 250.512 492.252 253.742 492.354 256.802C492.456 260.61 492.456 264.35 493.17 268.124C493.85 271.83 495.04 275.4 496.604 278.834C497.318 280.398 498.134 281.894 499.052 283.356C499.018 283.526 499.086 283.696 499.154 283.9ZM481.338 244.018C481.202 243.984 481.1 243.984 480.964 243.95C478.04 243.406 475.286 242.284 473.722 239.666C472.804 238.102 472.498 236.402 472.566 234.668C472.668 235.144 472.77 235.62 472.974 236.096C473.008 236.198 473.076 236.3 473.11 236.402C474.674 240.176 477.836 242.352 481.338 244.018ZM497.352 278.834C495.618 275.162 494.394 271.286 493.68 267.308C492.864 262.65 493.442 257.958 492.728 253.3C492.524 252.008 492.184 250.716 491.674 249.526C493.272 251.532 493.782 254.218 494.122 256.666C495.04 262.888 494.938 269.212 496.298 275.4C496.604 276.59 496.944 277.712 497.352 278.834ZM516.936 262.106C518.364 265.132 520.132 267.988 521.424 271.082C522.716 274.142 523.43 277.678 522.58 280.806C521.832 275.23 518.908 269.62 517.446 264.384C517.242 263.636 517.072 262.854 516.936 262.106Z" fill="url(#paint14_linear_8_199)"/>
<path d="M453.322 458.354C449.922 458.762 444.176 455.532 442.068 454.818C439.348 453.866 436.424 453.322 433.534 453.628C430.61 453.934 428.774 455.668 426.19 456.518C424.15 457.198 422.654 455.294 420.818 454.308C418.268 452.88 415.378 452.302 412.488 452.438C408.884 452.608 401.166 456.348 397.766 453.934C396.814 457.776 395.998 461.04 395.454 463.284C399.058 464.372 403.24 464.032 406.98 463.148C411.094 462.196 414.086 461.278 417.826 463.692C420.818 465.63 424.014 467.16 427.652 466.208C431.528 465.188 433.466 462.332 437.75 463.454C441.694 464.474 445.196 466.718 449.208 467.466C451.044 467.806 452.982 467.84 454.852 467.534C454.41 465.12 453.866 461.958 453.322 458.354Z" fill="white"/>
<path d="M114.07 458.014H227.29C229.432 458.014 231.166 456.28 231.166 454.138V448.018C231.166 447.61 230.826 447.304 230.452 447.304H110.908C110.5 447.304 110.194 447.644 110.194 448.018V454.138C110.194 456.28 111.928 458.014 114.07 458.014Z" fill="#7F4746"/>
<path d="M114.308 576.402H123.216L146.608 458.014H137.7L114.308 576.402Z" fill="url(#paint15_linear_8_199)"/>
<path d="M227.052 576.402H218.144L194.752 458.014H203.66L227.052 576.402Z" fill="url(#paint16_linear_8_199)"/>
<path d="M87.38 313.004H114.784C123.046 313.004 130.152 318.852 131.75 326.978L149.464 418.336L231.166 432.752L174.828 437.58L116.144 435.608L97.512 393.38L87.38 313.004Z" fill="url(#paint17_linear_8_199)"/>
<path d="M95.71 320.008L115.022 428.74C115.43 431.086 117.47 432.786 119.85 432.786H231.166V441.524C231.166 446.182 227.392 449.99 222.7 449.99H118.796C108.868 449.99 100.334 442.85 98.6 433.058L79.05 322.966C78.132 317.798 82.11 313.038 87.38 313.038C91.494 313.004 94.996 315.962 95.71 320.008Z" fill="url(#paint18_linear_8_199)"/>
<path d="M227.732 290.462C227.732 290.462 238.476 292.842 239.496 323.646C240.516 354.45 234.09 358.054 243.338 360.128C250.818 361.794 281.724 362.44 300.288 363.596C307.156 364.004 314.024 363.46 320.688 361.93C325.584 360.808 330.82 359.89 332.724 360.672C336.566 362.202 357.884 371.45 349.418 371.722C340.952 371.994 220.592 373.898 218.416 371.722C216.24 369.546 213.214 331.058 213.214 331.058L205.054 304.674L227.732 290.462Z" fill="url(#paint19_linear_8_199)"/>
<path d="M273.088 362.27C259.93 361.692 247.69 361.08 243.338 360.094C234.09 358.054 240.516 354.45 239.496 323.612C238.476 292.774 231.948 289.442 231.948 289.442L205.088 304.606L213.248 330.99C213.248 330.99 216.274 369.478 218.45 371.654C219.47 372.674 246.126 372.81 275.196 372.606C273.428 369.376 272.986 365.704 273.088 362.27Z" fill="url(#paint20_linear_8_199)"/>
<path d="M314.602 565.76C306.884 562.292 288.796 558.45 281.86 546.89C281.18 545.768 280.67 543.66 280.262 540.804C282.88 540.192 285.43 539.104 287.606 537.37L282.2 416.704C282.166 415.582 282.132 414.596 282.064 413.78V413.678C281.996 412.964 281.928 412.42 281.86 411.978C279.548 401.2 202.164 397.256 202.164 397.256L247.962 437.41C247.962 437.41 248.948 441.694 250.342 448.528L249.118 450.908L259.998 539.274C259.862 539.648 259.692 539.988 259.522 540.294C250.614 556.478 255.272 576.334 255.272 576.334C255.272 576.334 314.228 576.538 318.478 576.334C322.694 576.164 322.32 569.228 314.602 565.76Z" fill="url(#paint21_linear_8_199)"/>
<path d="M314.602 565.76C306.884 562.292 288.796 558.45 281.86 546.89C281.18 545.768 280.67 543.66 280.262 540.804C270.742 543.048 259.964 539.308 259.964 539.308C259.828 539.682 259.658 540.022 259.488 540.328C250.58 556.512 255.238 576.368 255.238 576.368C255.238 576.368 314.194 576.572 318.444 576.368C322.694 576.164 322.32 569.228 314.602 565.76Z" fill="url(#paint22_linear_8_199)"/>
<path d="M186.218 258.162C186.218 258.162 185.13 274.074 180.71 275.978C176.29 277.916 156.638 276.93 152.762 282.914C148.92 288.898 134.776 328.95 131.682 353.056C128.588 377.162 125.188 409.496 127.126 415.276C129.064 421.056 132.906 439.178 165.648 438.396C198.39 437.614 222.938 438.77 223.516 441.082C224.094 443.394 237.184 540.872 233.138 549.372C229.806 556.342 229.534 563.89 229.262 571.608C229.16 574.906 231.778 577.66 235.076 577.694C249.22 577.898 289.408 578.442 290.768 576.776C292.502 574.668 291.55 567.528 280.942 565.998C270.334 564.468 253.742 553.996 252.008 544C250.274 533.97 260.134 423.198 252.382 416.466C239.462 405.212 202.64 402.662 202.096 397.324C200.294 380.324 241.162 299.132 231.914 289.51C224.706 281.996 212.262 285.26 211.888 278.154C211.514 271.048 208.42 261.392 208.42 261.392L186.218 258.162Z" fill="url(#paint23_linear_8_199)"/>
<path d="M216.818 274.346C212.874 275.536 183.6 273.36 178.84 250.648C174.08 227.97 181.152 217.022 200.158 216.58C200.158 216.58 220.218 215.696 223.72 238.034C223.924 239.326 224.094 240.584 224.23 241.842L224.4 256.836C223.244 267.478 219.47 273.53 216.818 274.346Z" fill="url(#paint24_linear_8_199)"/>
<path d="M188.972 263.058L188.088 264.452C187.102 263.942 189.584 265.676 188.598 265.166C188.156 264.928 187.748 264.996 187.442 265.2C197.948 274.278 213.962 275.196 216.818 274.312C219.47 273.496 223.244 267.444 224.4 256.768L224.366 255.068C222.224 254.32 219.98 253.742 217.702 253.674C214.642 253.572 211.718 254.422 208.964 255.612C203.252 258.094 196.214 262.922 189.822 259.794C188.326 259.046 187.85 261.324 189.346 262.072C189.89 262.378 188.36 262.888 188.972 263.058ZM207.774 260.882C212.058 260.27 216.818 256.088 220.796 259.964C220.898 260.066 220.966 260.168 221.034 260.27C221.272 260.576 221.374 261.018 221.204 261.494C220.184 264.044 218.11 266.22 215.254 266.424C212.194 266.662 209.474 264.928 207.128 263.16C206.21 262.48 206.72 261.052 207.774 260.882Z" fill="url(#paint25_linear_8_199)"/>
<path d="M190.332 260.304C190.264 261.562 190.128 262.786 189.992 264.01C189.992 264.01 189.992 264.01 189.992 264.044C189.856 265.268 188.462 265.948 187.408 265.268C186.32 264.588 184.96 263.738 184.314 263.194C183.056 262.14 178.602 255.17 178.16 254.388C178.126 254.354 178.126 254.286 178.092 254.252C176.562 250.682 175.134 247.112 174.42 243.304C173.604 239.054 173.264 234.09 174.216 229.806C175.202 225.352 177.956 222.054 181.662 219.504C183.6 218.178 185.708 217.09 187.748 215.934C190.026 214.676 192.372 213.418 194.922 212.806C199.172 211.786 204.102 212.67 208.25 213.758C212.704 214.948 217.09 216.614 221.714 217.09C222.87 217.226 224.06 217.294 225.182 216.988C226.066 216.75 226.882 216.24 227.8 216.002C229.364 215.628 230.758 215.968 231.608 217.43C232.526 219.028 232.39 220.592 231.642 222.02C231.54 222.224 231.472 222.428 231.438 222.666C230.962 227.732 228.718 232.866 223.21 234.022C219.64 234.77 216.444 232.526 212.874 232.832C210.018 233.104 207.434 234.226 204.68 233.92C204 233.852 203.354 234.192 203.014 234.77C202.878 235.008 202.742 235.246 202.572 235.484C200.09 239.224 195.364 239.7 192.406 242.76C191.964 243.202 191.624 243.678 191.352 244.222C191.046 244.8 190.434 245.174 189.788 245.14C189.142 245.106 188.496 245.208 187.816 245.48C186.082 246.194 185.096 247.928 185.096 249.764C185.062 253.402 187.374 257.856 190.094 260.202C190.264 260.236 190.298 260.27 190.332 260.304Z" fill="url(#paint26_linear_8_199)"/>
<path d="M233.852 536.758C234.09 543.218 233.92 547.808 233.172 549.372C229.84 556.342 229.568 563.89 229.296 571.608C229.194 574.906 231.812 577.66 235.11 577.694C249.254 577.898 289.442 578.442 290.802 576.776C292.536 574.668 291.584 567.528 280.976 565.998C270.368 564.468 253.776 553.996 252.042 544C251.838 542.742 251.804 539.954 251.872 536.01C246.704 536.18 240.108 536.452 233.852 536.758Z" fill="#383F7C"/>
<path d="M255.442 443.836C255.442 439.484 255.374 435.472 255.238 431.936V431.902C254.864 423.538 254.048 417.792 252.45 416.432C239.53 405.178 202.708 402.628 202.164 397.29C201.96 395.488 202.266 392.938 202.946 389.81L127.874 387.532C126.65 400.962 126.106 412.114 127.16 415.276C129.098 421.056 132.94 439.178 165.682 438.396C198.424 437.614 222.972 438.77 223.55 441.082L228.038 543.898C228.038 543.898 243.304 553.418 257.244 545.19L255.442 443.836Z" fill="url(#paint27_linear_8_199)"/>
<path d="M202.164 394.74C203.796 373.422 240.822 298.69 231.982 289.476C225.522 282.778 214.914 284.648 212.466 280.024C197.37 289.476 180.744 275.978 180.744 275.978C176.324 277.916 156.672 276.93 152.796 282.914C148.954 288.898 134.81 328.95 131.716 353.056C129.744 368.492 127.636 387.328 126.888 400.384C162.01 407.83 202.164 394.74 202.164 394.74Z" fill="url(#paint28_linear_8_199)"/>
<path d="M173.774 279.208C173.774 279.99 205.632 345.984 209.236 343.672C212.84 341.36 250.852 306.17 254.966 297.16C259.08 288.184 262.412 274.04 266.798 272.748C271.15 271.456 282.982 266.322 284.002 269.144C285.022 271.966 293.25 292.774 285.804 294.304C278.358 295.834 266.288 305.592 262.412 313.072C258.57 320.518 226.44 371.382 215.662 372.164C204.884 372.946 175.338 364.208 156.06 327.964L173.774 279.208Z" fill="url(#paint29_linear_8_199)"/>
<path d="M238.238 316.676C226.032 329.018 211.412 342.312 209.236 343.706C205.632 346.018 173.774 279.99 173.774 279.242L146.608 318.036C170.306 362.746 204.85 373.014 215.662 372.232C222.836 371.722 239.428 349.078 250.886 331.772C245.446 330.106 240.856 322.218 238.238 316.676Z" fill="white"/>
<path d="M439.008 389.98H252.994C249.9 389.98 247.384 387.464 247.384 384.37V376.89H444.618V384.37C444.618 387.464 442.102 389.98 439.008 389.98Z" fill="#7F4746"/>
<path d="M485.962 383.588H206.04C204.374 383.588 202.98 382.228 202.98 380.528V372.402C202.98 370.736 204.34 369.342 206.04 369.342H485.962C487.628 369.342 489.022 370.702 489.022 372.402V380.528C489.022 382.228 487.662 383.588 485.962 383.588Z" fill="url(#paint30_linear_8_199)"/>
<path d="M349.01 301.614V281.35C349.01 281.112 348.874 280.908 348.67 280.908H345.984H343.298C343.128 280.908 342.958 281.112 342.958 281.35V301.614C342.958 305.762 342.108 309.842 340.476 313.412L337.314 320.416C335.512 324.394 334.56 328.916 334.56 333.54V369.376H345.984H357.408V333.574C357.408 328.984 356.456 324.428 354.654 320.45L351.492 313.446C349.86 309.842 349.01 305.762 349.01 301.614Z" fill="#2E3666"/>
<path d="M357.408 336.328H334.56V355.708H357.408V336.328Z" fill="url(#paint31_linear_8_199)"/>
<path d="M342.584 0H337.484V173.876H342.584V0Z" fill="url(#paint32_linear_8_199)"/>
<path d="M340.374 187.782C346.327 187.782 351.152 182.957 351.152 177.004C351.152 171.051 346.327 166.226 340.374 166.226C334.422 166.226 329.596 171.051 329.596 177.004C329.596 182.957 334.422 187.782 340.374 187.782Z" fill="white"/>
<path d="M340.374 150.314C325.584 150.314 313.616 162.282 313.616 177.072H367.166C367.132 162.282 355.164 150.314 340.374 150.314Z" fill="url(#paint33_linear_8_199)"/>
<path d="M269.144 0H264.044V139.264H269.144V0Z" fill="url(#paint34_linear_8_199)"/>
<path d="M266.934 153.17C272.887 153.17 277.712 148.345 277.712 142.392C277.712 136.439 272.887 131.614 266.934 131.614C260.981 131.614 256.156 136.439 256.156 142.392C256.156 148.345 260.981 153.17 266.934 153.17Z" fill="white"/>
<path d="M266.934 115.668C252.144 115.668 240.176 127.636 240.176 142.426H293.726C293.726 127.67 281.724 115.668 266.934 115.668Z" fill="url(#paint35_linear_8_199)"/>
<path d="M411.57 139.264H416.67V0H411.57V139.264Z" fill="url(#paint36_linear_8_199)"/>
<path d="M413.78 153.17C419.733 153.17 424.558 148.345 424.558 142.392C424.558 136.439 419.733 131.614 413.78 131.614C407.828 131.614 403.002 136.439 403.002 142.392C403.002 148.345 407.828 153.17 413.78 153.17Z" fill="white"/>
<path d="M413.78 115.668C428.57 115.668 440.538 127.636 440.538 142.426H386.988C387.022 127.67 398.99 115.668 413.78 115.668Z" fill="url(#paint37_linear_8_199)"/>
<defs>
<linearGradient id="paint0_linear_8_199" x1="346.001" y1="481.859" x2="346.781" y2="400.061" gradientUnits="userSpaceOnUse">
<stop stop-color="#7F4746"/>
<stop offset="1" stop-color="#683A3A"/>
</linearGradient>
<linearGradient id="paint1_linear_8_199" x1="549.534" y1="518.108" x2="548.921" y2="485.792" gradientUnits="userSpaceOnUse">
<stop stop-color="#7F4746"/>
<stop offset="1" stop-color="#683A3A"/>
</linearGradient>
<linearGradient id="paint2_linear_8_199" x1="469.093" y1="518.414" x2="469.093" y2="486.093" gradientUnits="userSpaceOnUse">
<stop stop-color="#7F4746"/>
<stop offset="1" stop-color="#683A3A"/>
</linearGradient>
<linearGradient id="paint3_linear_8_199" x1="511.108" y1="359.29" x2="550.587" y2="420.036" gradientUnits="userSpaceOnUse">
<stop stop-color="#FEB783"/>
<stop offset="1" stop-color="#EA9154"/>
</linearGradient>
<linearGradient id="paint4_linear_8_199" x1="526.082" y1="405" x2="528.041" y2="443.922" gradientUnits="userSpaceOnUse">
<stop stop-color="#FEB783"/>
<stop offset="1" stop-color="#EA9154"/>
</linearGradient>
<linearGradient id="paint5_linear_8_199" x1="369.725" y1="550.895" x2="423.873" y2="550.895" gradientUnits="userSpaceOnUse">
<stop stop-color="#383F7C"/>
<stop offset="1" stop-color="#2E3666"/>
</linearGradient>
<linearGradient id="paint6_linear_8_199" x1="415.057" y1="556.938" x2="415.057" y2="548.091" gradientUnits="userSpaceOnUse">
<stop stop-color="#383F7C"/>
<stop offset="1" stop-color="#2E3666"/>
</linearGradient>
<linearGradient id="paint7_linear_8_199" x1="439.693" y1="306.628" x2="452.629" y2="318.358" gradientUnits="userSpaceOnUse">
<stop stop-color="#FCDEE0"/>
<stop offset="1" stop-color="#EFB4B4"/>
</linearGradient>
<linearGradient id="paint8_linear_8_199" x1="430.755" y1="320.315" x2="471.968" y2="320.315" gradientUnits="userSpaceOnUse">
<stop stop-color="#FF5B6D"/>
<stop offset="0.9667" stop-color="#ED4A62"/>
<stop offset="1" stop-color="#EFB4B4"/>
</linearGradient>
<linearGradient id="paint9_linear_8_199" x1="472.553" y1="347.838" x2="472.553" y2="264.27" gradientUnits="userSpaceOnUse">
<stop stop-color="#FCDEE0"/>
<stop offset="1" stop-color="#EFB4B4"/>
</linearGradient>
<linearGradient id="paint10_linear_8_199" x1="458.782" y1="329.405" x2="536.839" y2="329.405" gradientUnits="userSpaceOnUse">
<stop stop-color="#FF5B6D"/>
<stop offset="0.9667" stop-color="#ED4A62"/>
<stop offset="1" stop-color="#EFB4B4"/>
</linearGradient>
<linearGradient id="paint11_linear_8_199" x1="451.928" y1="406.412" x2="484.51" y2="435.96" gradientUnits="userSpaceOnUse">
<stop stop-color="#6F84EF"/>
<stop offset="1" stop-color="#526DE2"/>
</linearGradient>
<linearGradient id="paint12_linear_8_199" x1="451.952" y1="339.761" x2="472.959" y2="331.718" gradientUnits="userSpaceOnUse">
<stop stop-color="#FCDEE0"/>
<stop offset="1" stop-color="#EFB4B4"/>
</linearGradient>
<linearGradient id="paint13_linear_8_199" x1="471.4" y1="248.987" x2="509.337" y2="248.987" gradientUnits="userSpaceOnUse">
<stop stop-color="#FCDEE0"/>
<stop offset="1" stop-color="#EFB4B4"/>
</linearGradient>
<linearGradient id="paint14_linear_8_199" x1="487.2" y1="252.983" x2="518.306" y2="271.372" gradientUnits="userSpaceOnUse">
<stop stop-color="#383F7C"/>
<stop offset="1" stop-color="#2E3666"/>
</linearGradient>
<linearGradient id="paint15_linear_8_199" x1="130.466" y1="516.911" x2="131.079" y2="484.596" gradientUnits="userSpaceOnUse">
<stop stop-color="#7F4746"/>
<stop offset="1" stop-color="#683A3A"/>
</linearGradient>
<linearGradient id="paint16_linear_8_199" x1="210.906" y1="517.218" x2="210.906" y2="484.896" gradientUnits="userSpaceOnUse">
<stop stop-color="#7F4746"/>
<stop offset="1" stop-color="#683A3A"/>
</linearGradient>
<linearGradient id="paint17_linear_8_199" x1="168.892" y1="358.093" x2="129.413" y2="418.84" gradientUnits="userSpaceOnUse">
<stop stop-color="#FEB783"/>
<stop offset="1" stop-color="#EA9154"/>
</linearGradient>
<linearGradient id="paint18_linear_8_199" x1="153.918" y1="403.804" x2="151.959" y2="442.725" gradientUnits="userSpaceOnUse">
<stop stop-color="#FEB783"/>
<stop offset="1" stop-color="#EA9154"/>
</linearGradient>
<linearGradient id="paint19_linear_8_199" x1="205.086" y1="331.576" x2="351.435" y2="331.576" gradientUnits="userSpaceOnUse">
<stop stop-color="#FCDEE0"/>
<stop offset="1" stop-color="#EFB4B4"/>
</linearGradient>
<linearGradient id="paint20_linear_8_199" x1="257.455" y1="331.089" x2="227.518" y2="331.089" gradientUnits="userSpaceOnUse">
<stop stop-color="white"/>
<stop offset="1" stop-color="#F1F2F2"/>
</linearGradient>
<linearGradient id="paint21_linear_8_199" x1="294.299" y1="493.274" x2="253.158" y2="488.972" gradientUnits="userSpaceOnUse">
<stop stop-color="#6F84EF"/>
<stop offset="1" stop-color="#526DE2"/>
</linearGradient>
<linearGradient id="paint22_linear_8_199" x1="307.276" y1="556.907" x2="271.538" y2="558.727" gradientUnits="userSpaceOnUse">
<stop stop-color="#383F7C"/>
<stop offset="1" stop-color="#2E3666"/>
</linearGradient>
<linearGradient id="paint23_linear_8_199" x1="126.587" y1="418.069" x2="291.516" y2="418.069" gradientUnits="userSpaceOnUse">
<stop stop-color="#FCDEE0"/>
<stop offset="1" stop-color="#EFB4B4"/>
</linearGradient>
<linearGradient id="paint24_linear_8_199" x1="216.32" y1="254.33" x2="191.808" y2="236.721" gradientUnits="userSpaceOnUse">
<stop stop-color="#F9CACA"/>
<stop offset="1" stop-color="#EFB4B4"/>
</linearGradient>
<linearGradient id="paint25_linear_8_199" x1="209.865" y1="282.262" x2="204.821" y2="254.281" gradientUnits="userSpaceOnUse">
<stop stop-color="#383F7C"/>
<stop offset="1" stop-color="#2E3666"/>
</linearGradient>
<linearGradient id="paint26_linear_8_199" x1="203.98" y1="282.877" x2="203.237" y2="242.817" gradientUnits="userSpaceOnUse">
<stop stop-color="#383F7C"/>
<stop offset="1" stop-color="#2E3666"/>
</linearGradient>
<linearGradient id="paint27_linear_8_199" x1="237.017" y1="431.321" x2="185.254" y2="472.128" gradientUnits="userSpaceOnUse">
<stop stop-color="#6F84EF"/>
<stop offset="1" stop-color="#526DE2"/>
</linearGradient>
<linearGradient id="paint28_linear_8_199" x1="181.363" y1="308.271" x2="179.964" y2="351.885" gradientUnits="userSpaceOnUse">
<stop stop-color="white"/>
<stop offset="1" stop-color="#F1F2F2"/>
</linearGradient>
<linearGradient id="paint29_linear_8_199" x1="156.062" y1="320.315" x2="288.885" y2="320.315" gradientUnits="userSpaceOnUse">
<stop stop-color="#FCDEE0"/>
<stop offset="1" stop-color="#EFB4B4"/>
</linearGradient>
<linearGradient id="paint30_linear_8_199" x1="416.684" y1="376.504" x2="294.524" y2="376.504" gradientUnits="userSpaceOnUse">
<stop stop-color="#FEB783"/>
<stop offset="1" stop-color="#EA9154"/>
</linearGradient>
<linearGradient id="paint31_linear_8_199" x1="334.577" y1="346.02" x2="357.428" y2="346.02" gradientUnits="userSpaceOnUse">
<stop stop-color="#FEB783"/>
<stop offset="1" stop-color="#EA9154"/>
</linearGradient>
<linearGradient id="paint32_linear_8_199" x1="340.021" y1="87.0102" x2="338.984" y2="135.275" gradientUnits="userSpaceOnUse">
<stop stop-color="#7F4746"/>
<stop offset="1" stop-color="#683A3A"/>
</linearGradient>
<linearGradient id="paint33_linear_8_199" x1="340.365" y1="180.257" x2="340.365" y2="147.907" gradientUnits="userSpaceOnUse">
<stop stop-color="#FEB783"/>
<stop offset="1" stop-color="#EA9154"/>
</linearGradient>
<linearGradient id="paint34_linear_8_199" x1="266.602" y1="69.6805" x2="265.771" y2="108.338" gradientUnits="userSpaceOnUse">
<stop stop-color="#7F4746"/>
<stop offset="1" stop-color="#683A3A"/>
</linearGradient>
<linearGradient id="paint35_linear_8_199" x1="266.945" y1="145.625" x2="266.945" y2="113.274" gradientUnits="userSpaceOnUse">
<stop stop-color="#FEB783"/>
<stop offset="1" stop-color="#EA9154"/>
</linearGradient>
<linearGradient id="paint36_linear_8_199" x1="414.127" y1="69.6805" x2="414.959" y2="108.338" gradientUnits="userSpaceOnUse">
<stop stop-color="#7F4746"/>
<stop offset="1" stop-color="#683A3A"/>
</linearGradient>
<linearGradient id="paint37_linear_8_199" x1="413.784" y1="145.625" x2="413.784" y2="113.274" gradientUnits="userSpaceOnUse">
<stop stop-color="#FEB783"/>
<stop offset="1" stop-color="#EA9154"/>
</linearGradient>
</defs>
</svg>
