<svg width="518" height="394" viewBox="0 0 518 394" fill="none" xmlns="http://www.w3.org/2000/svg">
<path d="M15.12 345C13.4027 345 11.9093 344.365 10.64 343.096C9.44533 341.827 8.848 340.333 8.848 338.616V269.624C8.848 267.907 9.44533 266.413 10.64 265.144C11.9093 263.875 13.4027 263.24 15.12 263.24H18.144C19.8613 263.24 21.3547 263.875 22.624 265.144C23.8933 266.413 24.528 267.907 24.528 269.624V298.632C24.528 298.707 24.5653 298.744 24.64 298.744C24.7147 298.744 24.752 298.707 24.752 298.632L47.264 268.392C49.728 264.957 53.088 263.24 57.344 263.24H62.944C64.2133 263.24 65.1467 263.837 65.744 265.032C66.3413 266.227 66.2293 267.309 65.408 268.28L39.648 301.656C39.2747 302.179 39.2747 302.701 39.648 303.224L66.64 339.848C67.4613 340.893 67.5733 342.013 66.976 343.208C66.3787 344.403 65.408 345 64.064 345H58.464C54.208 345 50.8853 343.283 48.496 339.848L24.752 306.248C24.752 306.173 24.7147 306.136 24.64 306.136C24.5653 306.136 24.528 306.173 24.528 306.248V338.616C24.528 340.333 23.8933 341.827 22.624 343.096C21.3547 344.365 19.8613 345 18.144 345H15.12ZM88.0189 345C86.3015 345 84.8082 344.365 83.5389 343.096C82.2695 341.827 81.6349 340.333 81.6349 338.616V269.624C81.6349 267.907 82.2695 266.413 83.5389 265.144C84.8082 263.875 86.3015 263.24 88.0189 263.24H92.4989C94.2162 263.24 95.7095 263.875 96.9789 265.144C98.2482 266.413 98.8829 267.907 98.8829 269.624V338.616C98.8829 340.333 98.2482 341.827 96.9789 343.096C95.7095 344.365 94.2162 345 92.4989 345H88.0189ZM172.306 304.12C172.306 284.707 165.213 275 151.026 275C136.839 275 129.746 284.707 129.746 304.12C129.746 323.533 136.839 333.24 151.026 333.24C165.213 333.24 172.306 323.533 172.306 304.12ZM178.242 335.032C171.597 342.424 162.525 346.12 151.026 346.12C139.527 346.12 130.418 342.424 123.698 335.032C117.053 327.64 113.73 317.336 113.73 304.12C113.73 290.904 117.053 280.6 123.698 273.208C130.418 265.816 139.527 262.12 151.026 262.12C162.525 262.12 171.597 265.816 178.242 273.208C184.962 280.6 188.322 290.904 188.322 304.12C188.322 317.336 184.962 327.64 178.242 335.032ZM222.55 310.504C213.59 307.517 207.094 303.896 203.062 299.64C199.105 295.384 197.126 290.232 197.126 284.184C197.126 277.389 199.403 272.013 203.958 268.056C208.513 264.099 214.897 262.12 223.11 262.12C230.054 262.12 236.102 262.904 241.254 264.472C243.046 264.995 244.465 266.077 245.51 267.72C246.63 269.288 247.19 271.043 247.19 272.984V273.992C247.19 275.411 246.555 276.531 245.286 277.352C244.017 278.099 242.71 278.211 241.366 277.688C235.766 275.523 230.054 274.44 224.23 274.44C220.497 274.44 217.659 275.299 215.718 277.016C213.777 278.733 212.806 281.123 212.806 284.184C212.806 289.56 216.315 293.405 223.334 295.72C233.414 298.931 240.395 302.589 244.278 306.696C248.235 310.803 250.214 316.104 250.214 322.6C250.214 338.28 240.545 346.12 221.206 346.12C215.158 346.12 209.67 345.187 204.742 343.32C202.95 342.648 201.531 341.491 200.486 339.848C199.515 338.205 199.03 336.376 199.03 334.36V333.016C199.03 331.597 199.627 330.589 200.822 329.992C202.017 329.32 203.249 329.283 204.518 329.88C209.446 332.344 214.635 333.576 220.086 333.576C229.569 333.576 234.31 329.992 234.31 322.824C234.31 319.912 233.414 317.523 231.622 315.656C229.83 313.715 226.806 311.997 222.55 310.504ZM297.396 346.12C285.599 346.12 276.228 342.499 269.284 335.256C262.415 327.939 258.98 317.56 258.98 304.12C258.98 290.829 262.303 280.525 268.948 273.208C275.668 265.816 285.039 262.12 297.06 262.12C302.585 262.12 307.215 262.456 310.948 263.128C312.74 263.427 314.233 264.323 315.428 265.816C316.623 267.309 317.22 268.989 317.22 270.856V271.752C317.22 273.32 316.548 274.552 315.204 275.448C313.935 276.344 312.553 276.605 311.06 276.232C307.401 275.261 303.295 274.776 298.74 274.776C291.348 274.776 285.524 277.315 281.268 282.392C277.087 287.469 274.996 294.712 274.996 304.12C274.996 313.453 277.161 320.696 281.492 325.848C285.897 330.925 291.759 333.464 299.076 333.464C304.004 333.464 308.223 333.016 311.732 332.12C313.225 331.747 314.607 332.008 315.876 332.904C317.22 333.8 317.892 335.032 317.892 336.6V337.384C317.892 339.251 317.295 340.931 316.1 342.424C314.98 343.843 313.487 344.701 311.62 345C307.364 345.747 302.623 346.12 297.396 346.12ZM387.447 304.12C387.447 284.707 380.353 275 366.167 275C351.98 275 344.887 284.707 344.887 304.12C344.887 323.533 351.98 333.24 366.167 333.24C380.353 333.24 387.447 323.533 387.447 304.12ZM393.383 335.032C386.737 342.424 377.665 346.12 366.167 346.12C354.668 346.12 345.559 342.424 338.839 335.032C332.193 327.64 328.871 317.336 328.871 304.12C328.871 290.904 332.193 280.6 338.839 273.208C345.559 265.816 354.668 262.12 366.167 262.12C377.665 262.12 386.737 265.816 393.383 273.208C400.103 280.6 403.463 290.904 403.463 304.12C403.463 317.336 400.103 327.64 393.383 335.032ZM437.691 310.504C428.731 307.517 422.235 303.896 418.203 299.64C414.245 295.384 412.267 290.232 412.267 284.184C412.267 277.389 414.544 272.013 419.099 268.056C423.653 264.099 430.037 262.12 438.251 262.12C445.195 262.12 451.243 262.904 456.395 264.472C458.187 264.995 459.605 266.077 460.651 267.72C461.771 269.288 462.331 271.043 462.331 272.984V273.992C462.331 275.411 461.696 276.531 460.427 277.352C459.157 278.099 457.851 278.211 456.507 277.688C450.907 275.523 445.195 274.44 439.371 274.44C435.637 274.44 432.8 275.299 430.859 277.016C428.917 278.733 427.947 281.123 427.947 284.184C427.947 289.56 431.456 293.405 438.475 295.72C448.555 298.931 455.536 302.589 459.419 306.696C463.376 310.803 465.355 316.104 465.355 322.6C465.355 338.28 455.685 346.12 436.347 346.12C430.299 346.12 424.811 345.187 419.883 343.32C418.091 342.648 416.672 341.491 415.627 339.848C414.656 338.205 414.171 336.376 414.171 334.36V333.016C414.171 331.597 414.768 330.589 415.963 329.992C417.157 329.32 418.389 329.283 419.659 329.88C424.587 332.344 429.776 333.576 435.227 333.576C444.709 333.576 449.451 329.992 449.451 322.824C449.451 319.912 448.555 317.523 446.763 315.656C444.971 313.715 441.947 311.997 437.691 310.504Z" fill="#DD2A2A"/>
<path d="M169 29C169 40.7179 158.702 51 145 51C131.298 51 121 40.7179 121 29C121 17.2821 131.298 7 145 7C158.702 7 169 17.2821 169 29Z" stroke="black" stroke-width="14"/>
<path d="M352 29C352 40.7179 341.702 51 328 51C314.298 51 304 40.7179 304 29C304 17.2821 314.298 7 328 7C341.702 7 352 17.2821 352 29Z" stroke="black" stroke-width="14"/>
<path d="M352 200C352 211.718 341.702 222 328 222C314.298 222 304 211.718 304 200C304 188.282 314.298 178 328 178C341.702 178 352 188.282 352 200Z" stroke="black" stroke-width="14"/>
<path d="M169 200C169 211.718 158.702 222 145 222C131.298 222 121 211.718 121 200C121 188.282 131.298 178 145 178C158.702 178 169 188.282 169 200Z" stroke="black" stroke-width="14"/>
<path d="M259 115C259 126.718 248.702 137 235 137C221.298 137 211 126.718 211 115C211 103.282 221.298 93 235 93C248.702 93 259 103.282 259 115Z" stroke="black" stroke-width="14"/>
<line x1="121" y1="29" x2="121" y2="203" stroke="black" stroke-width="14"/>
<line y1="-7" x2="247.728" y2="-7" transform="matrix(0.732661 -0.680594 0.732661 0.680594 134.25 186.019)" stroke="black" stroke-width="14"/>
<line y1="-7" x2="247.728" y2="-7" transform="matrix(0.732661 -0.680594 0.732661 0.680594 170 216.907)" stroke="black" stroke-width="14"/>
<line y1="-7" x2="112.813" y2="-7" transform="matrix(0.732661 0.680594 -0.732661 0.680594 220.049 139.27)" stroke="black" stroke-width="14"/>
<path d="M252 99.396L339.964 180.691" stroke="black" stroke-width="14"/>
<line x1="169" y1="203" x2="169" y2="29" stroke="black" stroke-width="14"/>
</svg>
